HIERARCHY
ROOT Hips
{
	OFFSET -0.001795 -0.223333 0.028219
	CHANNELS 6 Xposition Yposition Zposition Zrotation Yrotation Xrotation 
	JOINT LeftUpLeg
	{
		OFFSET 0.069520 -0.091406 -0.006815
		CHANNELS 3 Zrotation Yrotation Xrotation
		JOINT LeftLeg
		{
			OFFSET 0.034277 -0.375199 -0.004496
			CHANNELS 3 Zrotation Yrotation Xrotation
			JOINT LeftFoot
			{
				OFFSET -0.013596 -0.397961 -0.043693
				CHANNELS 3 Zrotation Yrotation Xrotation
				JOINT LeftToe
				{
					OFFSET 0.026358 -0.055791 0.119288
					CHANNELS 3 Zrotation Yrotation Xrotation
					End Site
					{
						OFFSET 0.000000 0.000000 0.000000
					}
				}
			}
		}
	}
	JOINT RightUpLeg
	{
		OFFSET -0.067670 -0.090522 -0.004320
		CHANNELS 3 Zrotation Yrotation Xrotation
		JOINT RightLeg
		{
			OFFSET -0.038290 -0.382569 -0.008850
			CHANNELS 3 Zrotation Yrotation Xrotation
			JOINT RightFoot
			{
				OFFSET 0.015774 -0.398415 -0.042312
				CHANNELS 3 Zrotation Yrotation Xrotation
				JOINT RightToe
				{
					OFFSET -0.025372 -0.048144 0.123348
					CHANNELS 3 Zrotation Yrotation Xrotation
					End Site
					{
						OFFSET 0.000000 0.000000 0.000000
					}
				}
			}
		}
	}
	JOINT Spine
	{
		OFFSET -0.002533 0.108963 -0.026696
		CHANNELS 3 Zrotation Yrotation Xrotation
		JOINT Spine1
		{
			OFFSET 0.005487 0.135180 0.001092
			CHANNELS 3 Zrotation Yrotation Xrotation
			JOINT Spine2
			{
				OFFSET 0.001457 0.052922 0.025425
				CHANNELS 3 Zrotation Yrotation Xrotation
				JOINT Neck
				{
					OFFSET -0.002778 0.213870 -0.042857
					CHANNELS 3 Zrotation Yrotation Xrotation
					JOINT Head
					{
						OFFSET 0.005152 0.064970 0.051349
						CHANNELS 3 Zrotation Yrotation Xrotation
						End Site
						{
							OFFSET 0.000000 0.000000 0.000000
						}
					}
				}
				JOINT LeftShoulder
				{
					OFFSET 0.078845 0.121749 -0.034090
					CHANNELS 3 Zrotation Yrotation Xrotation
					JOINT LeftArm
					{
						OFFSET 0.090977 0.030469 -0.008868
						CHANNELS 3 Zrotation Yrotation Xrotation
						JOINT LeftForeArm
						{
							OFFSET 0.259612 -0.012772 -0.027456
							CHANNELS 3 Zrotation Yrotation Xrotation
							JOINT LeftHand
							{
								OFFSET 0.249234 0.008986 -0.001171
								CHANNELS 3 Zrotation Yrotation Xrotation
								End Site
								{
									OFFSET 0.000000 0.000000 0.000000
								}
							}
						}
					}
				}
				JOINT RightShoulder
				{
					OFFSET -0.081759 0.118833 -0.038615
					CHANNELS 3 Zrotation Yrotation Xrotation
					JOINT RightArm
					{
						OFFSET -0.096012 0.032551 -0.009143
						CHANNELS 3 Zrotation Yrotation Xrotation
						JOINT RightForeArm
						{
							OFFSET -0.253742 -0.013329 -0.021401
							CHANNELS 3 Zrotation Yrotation Xrotation
							JOINT RightHand
							{
								OFFSET -0.255298 0.007772 -0.005559
								CHANNELS 3 Zrotation Yrotation Xrotation
								End Site
								{
									OFFSET 0.000000 0.000000 0.000000
								}
							}
						}
					}
				}
			}
		}
	}
}
MOTION
Frames: 18
Frame Time: 0.050000
0.015135 0.933484 0.609967 -3.588303 -9.553558 1.409747 0.367927 -0.103783 -1.122502 -0.177515 0.059659 -1.236787 1.505667 3.558135 1.100648 0.000000 0.000000 0.000000 3.789975 0.413735 -4.332057 0.173495 0.099215 2.653337 -4.944535 -14.877159 10.854176 0.000000 0.000000 0.000000 -3.683266 0.040304 5.443999 -1.440336 0.767017 3.403481 3.283999 -0.321438 6.651989 -1.759834 1.677408 -18.282311 0.000000 0.000000 0.000000 -25.325079 -10.035380 5.797780 -44.296157 -19.679067 0.965049 -19.677580 -73.674545 20.288624 0.000000 0.000000 0.000000 24.082779 17.798629 6.388716 46.516548 16.415031 2.153862 28.058642 75.481777 22.834468 0.000000 0.000000 0.000000 
0.015485 0.933640 0.609523 -3.488434 -9.361345 1.441349 0.297093 -0.078099 -0.834133 -0.251257 0.090121 -1.955252 1.353850 3.321899 1.401516 0.000000 0.000000 0.000000 3.686816 0.400642 -4.230722 0.144406 0.087244 2.325301 -5.006228 -14.996315 10.977712 0.000000 0.000000 0.000000 -3.708362 0.041963 5.252807 -1.465332 0.774271 3.279378 3.104791 -0.408004 6.683207 -1.931194 1.780361 -18.264066 0.000000 0.000000 0.000000 -25.210996 -10.241214 5.909225 -44.375075 -19.786033 1.013519 -19.858940 -73.582494 20.390704 0.000000 0.000000 0.000000 23.877801 17.533100 6.236821 46.942040 15.926679 1.977945 27.162814 76.970858 22.738353 0.000000 0.000000 0.000000 
0.015968 0.933804 0.609165 -3.442599 -9.129066 1.427662 0.208952 -0.051861 -0.546246 -0.202534 0.104408 -2.562509 1.199596 3.071233 1.647896 0.000000 0.000000 0.000000 3.649101 0.393542 -4.164790 0.090391 0.086243 2.181060 -5.095202 -15.162771 11.114576 0.000000 0.000000 0.000000 -3.773981 0.045477 5.074121 -1.431489 0.755497 3.369686 2.824795 -0.524260 6.457067 -2.021045 1.841579 -18.353086 0.000000 0.000000 0.000000 -25.072444 -10.170141 5.822799 -44.373386 -19.878017 1.076243 -21.164168 -73.026503 21.145238 0.000000 0.000000 0.000000 23.963678 17.041895 5.951524 47.155203 15.426383 1.810857 26.365238 77.936987 22.477575 0.000000 0.000000 0.000000 
0.016488 0.934022 0.608865 -3.371708 -8.823795 1.475136 0.028892 -0.023793 -0.243465 -0.035144 0.114236 -3.334123 1.001496 2.759770 1.979255 0.000000 0.000000 0.000000 3.535899 0.385503 -4.093832 0.121833 0.070464 1.908754 -5.206587 -15.371192 11.300482 0.000000 0.000000 0.000000 -3.829697 0.048708 4.900039 -1.357880 0.708742 3.138937 2.577150 -0.632869 6.604910 -2.109056 1.897293 -18.189192 0.000000 0.000000 0.000000 -25.072870 -10.250279 5.849601 -44.079646 -19.961601 1.081174 -22.683571 -72.453452 22.038050 0.000000 0.000000 0.000000 24.201021 16.882449 5.897155 47.110537 14.723313 1.520950 24.588188 78.862631 21.437459 0.000000 0.000000 0.000000 
0.017042 0.934197 0.608585 -3.354066 -8.549917 1.473495 -0.157342 -0.011178 -0.113174 0.237573 0.101246 -3.669377 0.860397 2.521834 2.141421 0.000000 0.000000 0.000000 3.451336 0.379302 -4.032881 0.200094 0.055941 1.769727 -5.310701 -15.562922 11.466809 0.000000 0.000000 0.000000 -3.837150 0.048163 4.696237 -1.258673 0.656956 3.256958 2.484388 -0.596068 6.439888 -1.997261 1.848552 -17.977409 0.000000 0.000000 0.000000 -24.826018 -9.945462 5.560762 -44.182090 -19.869952 1.095844 -25.911816 -72.102395 24.275792 0.000000 0.000000 0.000000 24.294518 16.434176 5.694647 47.319815 14.184803 1.313513 22.761145 79.321276 20.157900 0.000000 0.000000 0.000000 
0.017572 0.934195 0.608307 -3.255310 -8.168510 1.381231 -0.439602 0.000898 0.001697 0.536258 0.081268 -3.836755 0.691370 2.203478 2.209223 0.000000 0.000000 0.000000 3.374785 0.362404 -3.877289 0.118735 0.058044 1.630729 -5.486734 -15.856461 11.556489 0.000000 0.000000 0.000000 -3.764819 0.041193 4.576239 -1.103539 0.574687 3.375458 2.226264 -0.623747 6.354366 -1.886987 1.800868 -17.726904 0.000000 0.000000 0.000000 -24.695530 -9.704222 5.317397 -44.134020 -19.608932 1.029167 -29.136012 -71.917089 26.563228 0.000000 0.000000 0.000000 24.497954 15.929764 5.466922 47.497750 13.606511 1.080599 23.820067 79.557129 21.212862 0.000000 0.000000 0.000000 
0.018102 0.934082 0.607930 -3.193924 -7.945758 1.373727 -0.628447 0.004325 0.027952 0.721464 0.071395 -3.982389 0.594392 2.020081 2.243365 0.000000 0.000000 0.000000 3.242336 0.358353 -3.834726 0.198614 0.044629 1.515267 -5.591136 -16.026710 11.589505 0.000000 0.000000 0.000000 -3.733698 0.039123 4.328709 -1.153051 0.598986 3.467860 2.283466 -0.622351 6.330014 -1.980463 1.862688 -17.561428 0.000000 0.000000 0.000000 -24.867909 -9.431894 5.124611 -43.944819 -19.408569 0.947964 -32.399002 -71.905743 29.014496 0.000000 0.000000 0.000000 24.578080 15.556534 5.274226 47.744647 13.144202 0.901499 24.247317 79.503863 21.582232 0.000000 0.000000 0.000000 
0.018693 0.933966 0.607297 -3.115626 -7.665442 1.370229 -0.762672 -0.009595 -0.115740 0.776840 0.062294 -3.874185 0.488086 1.799725 2.216767 0.000000 0.000000 0.000000 3.038760 0.352013 -3.770125 0.374362 0.018301 1.320620 -5.715938 -16.232433 11.650198 0.000000 0.000000 0.000000 -3.610593 0.032087 4.087676 -1.239249 0.641686 3.572504 2.131266 -0.599693 6.296049 -2.096086 1.951117 -17.543630 0.000000 0.000000 0.000000 -24.696895 -9.216199 4.906069 -43.926537 -19.149670 0.883020 -34.899340 -71.899111 30.870136 0.000000 0.000000 0.000000 24.560991 15.208095 5.132228 47.960655 12.732161 0.724932 25.117288 79.633671 22.437327 0.000000 0.000000 0.000000 
0.019440 0.934032 0.606251 -3.054073 -7.547274 1.353209 -0.878177 -0.019585 -0.217199 0.802557 0.058477 -3.834477 0.429287 1.705649 2.291076 0.000000 0.000000 0.000000 2.875182 0.373237 -3.930233 0.485409 0.013903 1.499542 -5.777873 -16.345126 11.717138 0.000000 0.000000 0.000000 -3.391974 0.020405 3.922474 -1.312301 0.678568 3.595036 2.092549 -0.490676 6.423235 -2.118465 1.987443 -17.756442 0.000000 0.000000 0.000000 -24.728492 -9.224159 4.857957 -44.038781 -18.969499 0.830640 -36.183829 -71.811227 31.769587 0.000000 0.000000 0.000000 24.427775 15.094916 5.133210 48.003592 12.701726 0.676474 25.526693 79.681821 22.885868 0.000000 0.000000 0.000000 
0.020339 0.934112 0.604811 -2.944275 -7.453289 1.153888 -1.156599 -0.027495 -0.296924 1.010582 0.026349 -3.527198 0.404797 1.657665 2.293050 0.000000 0.000000 0.000000 2.740007 0.382513 -3.986077 0.438553 0.030310 1.792525 -5.838435 -16.450336 11.751172 0.000000 0.000000 0.000000 -3.292091 0.010850 4.123543 -1.300481 0.670044 3.502951 2.041619 -0.209311 6.500240 -2.026450 1.974122 -17.929306 0.000000 0.000000 0.000000 -24.529453 -9.323300 4.788092 -44.045075 -18.949224 0.857413 -36.555936 -71.653669 31.857548 0.000000 0.000000 0.000000 24.572043 14.797252 5.082199 47.495152 12.729297 0.628951 26.870634 79.618299 24.145038 0.000000 0.000000 0.000000 
0.021185 0.934161 0.603311 -2.853406 -7.180803 0.953347 -1.345682 -0.027835 -0.304362 1.119382 0.010256 -3.378688 0.288004 1.438784 2.332384 0.000000 0.000000 0.000000 2.521687 0.392419 -4.042420 0.598820 0.024833 2.103426 -5.981362 -16.690201 11.828054 0.000000 0.000000 0.000000 -3.110323 -0.003584 4.275176 -1.300490 0.666507 3.454394 1.967681 -0.287006 6.670646 -1.939055 1.938826 -18.250083 0.000000 0.000000 0.000000 -24.452059 -9.308179 4.753832 -44.184021 -18.952705 0.862065 -36.186155 -71.279340 31.350419 0.000000 0.000000 0.000000 24.482513 14.813979 5.125018 47.314445 12.875155 0.651822 27.313734 79.477305 24.503694 0.000000 0.000000 0.000000 
0.021837 0.934258 0.602100 -2.740910 -7.163993 0.672637 -1.547393 -0.014674 -0.179235 1.202224 -0.004149 -3.233744 0.272486 1.425255 2.384699 0.000000 0.000000 0.000000 2.297214 0.393944 -4.040764 0.727830 0.025008 2.478629 -6.004727 -16.728461 11.822873 0.000000 0.000000 0.000000 -2.965856 -0.016596 4.479355 -1.325839 0.679532 3.435331 1.876878 -0.192616 6.718608 -1.868326 1.914951 -18.393252 0.000000 0.000000 0.000000 -24.343089 -9.362501 4.738180 -44.168672 -18.926310 0.860907 -35.872692 -70.456445 30.611462 0.000000 0.000000 0.000000 24.569363 14.492786 4.972805 47.026837 12.740472 0.573252 32.532785 78.659643 28.545908 0.000000 0.000000 0.000000 
0.022302 0.934346 0.601160 -2.711944 -6.958078 0.422051 -1.667897 -0.001640 -0.060657 1.339622 -0.022282 -3.109637 0.186800 1.259173 2.393153 0.000000 0.000000 0.000000 2.261881 0.380643 -3.906872 0.710065 0.032252 2.630611 -6.102374 -16.891282 11.904258 0.000000 0.000000 0.000000 -2.882826 -0.025714 4.598746 -1.321408 0.675491 3.488202 1.882416 -0.258935 6.786906 -1.794348 1.876470 -18.401821 0.000000 0.000000 0.000000 -24.155286 -9.455215 4.770403 -43.960021 -18.702982 0.766788 -35.525900 -70.071149 30.116699 0.000000 0.000000 0.000000 24.726518 14.631578 5.074068 46.696120 12.586278 0.498550 33.898366 77.645843 29.184466 0.000000 0.000000 0.000000 
0.022659 0.934535 0.600225 -2.673260 -6.685999 0.073714 -1.795255 0.024862 0.179119 1.489796 -0.040007 -3.020020 0.061997 1.028287 2.438173 0.000000 0.000000 0.000000 2.163310 0.357520 -3.682565 0.803885 0.027715 2.819776 -6.225095 -17.094719 12.021360 0.000000 0.000000 0.000000 -2.839505 -0.036047 4.920688 -1.317969 0.671646 3.583913 1.945043 -0.265106 6.710341 -1.899270 1.957006 -18.571533 0.000000 0.000000 0.000000 -23.655837 -9.261759 4.574157 -44.071753 -18.893903 0.871735 -35.255182 -69.562804 29.601889 0.000000 0.000000 0.000000 24.566452 14.461552 5.009731 46.471173 12.633984 0.496789 35.377183 76.248679 29.692890 0.000000 0.000000 0.000000 
0.023081 0.934763 0.599051 -2.687539 -6.224122 -0.233576 -1.892309 0.045338 0.357974 1.700541 -0.061881 -2.949574 -0.141842 0.646456 2.493672 0.000000 0.000000 0.000000 2.150360 0.336843 -3.471204 0.853233 0.025256 2.952289 -6.430659 -17.438771 12.245283 0.000000 0.000000 0.000000 -2.814754 -0.046278 5.296670 -1.231415 0.619341 3.467149 2.091217 -0.236496 6.767383 -1.860283 1.956807 -18.454603 0.000000 0.000000 0.000000 -23.453240 -9.238416 4.469666 -44.098212 -18.978666 0.924991 -36.139593 -69.382556 30.089042 0.000000 0.000000 0.000000 24.481458 14.596201 5.179772 46.286621 12.661190 0.464765 35.842985 74.863951 29.427381 0.000000 0.000000 0.000000 
0.023623 0.935131 0.597546 -2.693221 -5.734762 -0.547248 -2.103447 0.044415 0.339190 2.086717 -0.116986 -2.558095 -0.332368 0.283110 2.519553 0.000000 0.000000 0.000000 2.099800 0.315711 -3.254575 0.941021 0.016277 3.045532 -6.637968 -17.787665 12.546946 0.000000 0.000000 0.000000 -2.775867 -0.058705 5.758539 -1.125137 0.558376 3.515421 2.123989 -0.127283 6.664975 -1.743424 1.935312 -18.662000 0.000000 0.000000 0.000000 -23.122326 -9.109419 4.249960 -44.394139 -19.217851 1.081135 -36.379777 -69.190983 30.051327 0.000000 0.000000 0.000000 24.364219 14.634370 5.328844 46.158413 12.812647 0.480088 35.558726 74.000434 28.874105 0.000000 0.000000 0.000000 
0.024211 0.935223 0.595898 -2.663115 -5.255838 -0.552202 -2.203467 0.020980 0.116929 2.190828 -0.131512 -2.436982 -0.540574 -0.094498 2.599456 0.000000 0.000000 0.000000 2.021519 0.328497 -3.344164 0.999687 0.007694 3.054201 -6.860838 -18.155816 12.776884 0.000000 0.000000 0.000000 -2.720838 -0.065590 5.899991 -1.059465 0.517301 3.334524 2.052720 0.194961 6.827395 -1.532837 1.877172 -18.672642 0.000000 0.000000 0.000000 -22.895400 -9.088782 4.044332 -44.523812 -18.931196 1.028533 -37.314884 -69.176720 30.566778 0.000000 0.000000 0.000000 24.093037 14.493676 5.461859 46.224565 13.190249 0.532403 35.369610 73.522606 28.714393 0.000000 0.000000 0.000000 
0.024675 0.935297 0.594415 -2.652095 -4.752874 -0.558705 -2.224210 0.005217 -0.035451 2.202039 -0.131679 -2.415822 -0.769033 -0.506278 2.688819 0.000000 0.000000 0.000000 2.023255 0.321461 -3.264695 0.961820 0.001125 2.790313 -7.082647 -18.514193 13.022468 0.000000 0.000000 0.000000 -2.793588 -0.063118 5.910622 -0.978800 0.469045 3.346024 2.057228 0.253231 6.883460 -1.561870 1.920053 -18.472859 0.000000 0.000000 0.000000 -22.719100 -8.753312 3.742283 -44.535906 -18.436078 0.871332 -38.481919 -69.168437 31.338273 0.000000 0.000000 0.000000 23.927926 14.514907 5.586099 46.195817 13.195381 0.489312 35.155806 73.475197 28.642446 0.000000 0.000000 0.000000 
